<svg width="24" height="24" viewBox="0 0 24 24" fill="none" xmlns="http://www.w3.org/2000/svg">
<g id="fluent:ios-arrow-24-filled" clip-path="url(#clip0_193_16)">
<circle id="Ellipse 14" cx="12" cy="12" r="12" fill="#97a4a1"/>
<path id="Vector" d="M9.18811 16.9882C9.12802 17.0455 9.08105 17.1128 9.04987 17.1864C9.01869 17.26 9.00391 17.3384 9.00638 17.4172C9.00886 17.4959 9.02853 17.5734 9.06428 17.6453C9.10004 17.7172 9.15117 17.782 9.21475 17.8361C9.27834 17.8902 9.35314 17.9325 9.43489 17.9606C9.51663 17.9887 9.60371 18.002 9.69117 17.9998C9.77862 17.9975 9.86473 17.9798 9.94458 17.9476C10.0244 17.9154 10.0965 17.8694 10.1565 17.8122L15.8179 12.4153C15.9349 12.304 16 12.1566 16 12.0034C16 11.8502 15.9349 11.7027 15.8179 11.5914L10.1565 6.19398C10.0969 6.13548 10.0248 6.08823 9.9447 6.055C9.86456 6.02176 9.77788 6.0032 9.6897 6.00038C9.60152 5.99756 9.51359 6.01054 9.43103 6.03857C9.34847 6.0666 9.27292 6.10912 9.20876 6.16366C9.14461 6.2182 9.09313 6.28368 9.05732 6.35628C9.02151 6.42888 9.00208 6.50717 9.00016 6.58659C8.99824 6.66601 9.01386 6.74499 9.04613 6.81892C9.07839 6.89286 9.12666 6.96029 9.18811 7.0173L14.4179 12.0034L9.18811 16.9882Z" fill="#0A0A0C"/>
</g>
<defs>
<clipPath id="clip0_193_16">
<rect width="24" height="24" fill="white" transform="matrix(-1 0 0 -1 24 24)"/>
</clipPath>
</defs>
</svg>
