<svg width="32" height="32" viewBox="0 0 32 32" fill="none" xmlns="http://www.w3.org/2000/svg">
<g id="Group">
<path id="Vector" d="M31.9978 16C31.9978 24.0807 26.0078 30.7612 18.2265 31.8453C17.4989 31.9462 16.7545 31.9989 15.9989 31.9989C15.1267 31.9989 14.2702 31.9294 13.4361 31.7948C5.81839 30.5684 0 23.963 0 16C0 7.16367 7.16368 0 16 0C24.8363 0 32 7.16367 32 16H31.9978Z" fill="#383D38"/>
<path id="Vector_2" d="M18.2268 12.8476V16.333H22.5384L21.8557 21.028H18.2268V31.8453C17.4992 31.9462 16.7548 31.9989 15.9992 31.9989C15.127 31.9989 14.2705 31.9294 13.4364 31.7949V21.028H9.45996V16.333H13.4364V12.0684C13.4364 9.42266 15.581 7.27692 18.2279 7.27692V7.27916C18.2357 7.27916 18.2425 7.27692 18.2503 7.27692H22.5396V11.3375H19.7369C18.9039 11.3375 18.2279 12.0135 18.2279 12.8464L18.2268 12.8476Z" fill="white"/>
</g>
</svg>
