<svg width="32" height="32" viewBox="0 0 32 32" fill="none" xmlns="http://www.w3.org/2000/svg">
<g id="telegram" clip-path="url(#clip0_87_1017)">
<g id="Group">
<path id="Vector" d="M16.0364 0H15.9636C7.14712 0 0 7.14712 0 15.9636V16.0364C0 24.8529 7.14712 32 15.9636 32H16.0364C24.8529 32 32 24.8529 32 16.0364V15.9636C32 7.14712 24.8529 0 16.0364 0Z" fill="#383D38"/>
<path id="Vector_2" d="M6.06088 15.4535C6.10573 15.4311 6.15059 15.4097 6.19432 15.3896C6.95443 15.0375 7.72464 14.7079 8.49373 14.3783C8.53521 14.3783 8.6047 14.3301 8.64394 14.3144C8.70336 14.2886 8.76279 14.264 8.82221 14.2382C8.93656 14.1889 9.05092 14.1406 9.16415 14.0913C9.39286 13.9938 9.62043 13.8962 9.84914 13.7987L11.218 13.2124C12.1306 12.8222 13.0443 12.4309 13.9569 12.0408C14.8695 11.6506 15.7832 11.2594 16.6958 10.8692C17.6084 10.4791 18.5221 10.0878 19.4347 9.69767C20.3473 9.30753 21.261 8.91625 22.1736 8.5261C22.3765 8.43865 22.5962 8.3086 22.8137 8.27048C22.9965 8.23797 23.1747 8.1752 23.3586 8.14044C23.7072 8.0743 24.0918 8.04739 24.4259 8.19201C24.5414 8.24246 24.6479 8.31309 24.7364 8.40166C25.1602 8.82096 25.1008 9.50932 25.0111 10.099C24.3866 14.209 23.7622 18.3202 23.1366 22.4302C23.0514 22.9941 22.9348 23.613 22.4897 23.9695C22.113 24.271 21.5771 24.3047 21.1119 24.1769C20.6466 24.0479 20.2363 23.7778 19.8338 23.5121C18.1645 22.4066 16.494 21.3012 14.8247 20.1958C14.4278 19.9334 13.9861 19.5904 13.9906 19.1139C13.9928 18.8269 14.1643 18.5713 14.3392 18.3437C15.7899 16.4513 17.8831 15.1508 19.4403 13.3458C19.66 13.0913 19.8327 12.6316 19.5311 12.4848C19.3517 12.3973 19.1454 12.5161 18.9817 12.6294C16.9234 14.0588 14.8661 15.4893 12.8078 16.9188C12.1362 17.3852 11.4322 17.865 10.6227 17.9794C9.89848 18.0825 9.16976 17.8807 8.46907 17.6744C7.8816 17.5017 7.29524 17.3246 6.71114 17.1419C6.40059 17.0455 6.07995 16.9412 5.84003 16.7226C5.60011 16.504 5.46223 16.1362 5.60685 15.8447C5.69766 15.662 5.87368 15.5465 6.05867 15.4524L6.06088 15.4535Z" fill="#FEFFFC"/>
</g>
</g>
<defs>
<clipPath id="clip0_87_1017">
<rect width="32" height="32" fill="white"/>
</clipPath>
</defs>
</svg>
