<svg width="32" height="32" viewBox="0 0 32 32" fill="none" xmlns="http://www.w3.org/2000/svg">
<g id="viber" clip-path="url(#clip0_87_1011)">
<g id="Group">
<path id="Vector" d="M16.0364 0H15.9636C7.14713 0 0 7.14712 0 15.9635V16.0364C0 24.8529 7.14713 32 15.9636 32H16.0364C24.8529 32 32 24.8529 32 16.0364V15.9635C32 7.14712 24.8529 0 16.0364 0Z" fill="#383D38"/>
<g id="Group_2">
<path id="Vector_2" d="M19.1185 20.68C15.023 20.68 11.6911 17.3469 11.6899 13.2515C11.6911 12.2133 12.5364 11.3691 13.5723 11.3691C13.6788 11.3691 13.7842 11.3781 13.8851 11.396C14.1071 11.433 14.3178 11.5082 14.5118 11.6214C14.5398 11.6382 14.5589 11.6651 14.5634 11.6965L14.9961 14.4242C15.0017 14.4556 14.9916 14.4881 14.9703 14.5116C14.7315 14.7762 14.4266 14.9668 14.0869 15.0621L13.9232 15.1081L13.9849 15.2661C14.5432 16.6877 15.68 17.8234 17.1027 18.384L17.2608 18.4467L17.3067 18.2831C17.402 17.9434 17.5926 17.6384 17.8572 17.3996C17.8763 17.3817 17.902 17.3727 17.9278 17.3727C17.9334 17.3727 17.939 17.3727 17.9458 17.3738L20.6734 17.8066C20.706 17.8122 20.7329 17.8301 20.7497 17.8582C20.8618 18.0521 20.9369 18.264 20.975 18.486C20.993 18.5846 21.0008 18.6889 21.0008 18.7977C21.0008 19.8347 20.1566 20.6789 19.1185 20.68Z" fill="#FDFDFD"/>
<path id="Vector_3" d="M26.3809 15.1014C26.16 12.6058 25.0165 10.2907 23.161 8.5832C21.2944 6.86566 18.8727 5.91943 16.3401 5.91943C10.7817 5.91943 6.25909 10.442 6.25909 16.0005C6.25909 17.866 6.77367 19.6834 7.74792 21.2664L5.5752 26.076L12.5317 25.3349C13.7414 25.8304 15.0217 26.0816 16.339 26.0816C16.6854 26.0816 17.0408 26.0636 17.3974 26.0266C17.7113 25.993 18.0286 25.9437 18.3402 25.8809C22.9951 24.9403 26.3932 20.809 26.4201 16.0543V16.0005C26.4201 15.6978 26.4066 15.3951 26.3797 15.1025L26.3809 15.1014ZM12.7997 23.2238L8.95089 23.6342L10.1 21.0881L9.87019 20.7798C9.85338 20.7574 9.83656 20.735 9.81751 20.7092C8.81971 19.3313 8.29278 17.7035 8.29278 16.0016C8.29278 11.5643 11.9028 7.95426 16.3401 7.95426C20.4972 7.95426 24.0209 11.1976 24.3606 15.3379C24.3785 15.5599 24.3886 15.783 24.3886 16.0028C24.3886 16.0655 24.3875 16.1272 24.3864 16.1933C24.3012 19.9053 21.708 23.0579 18.0801 23.8606C17.8032 23.9223 17.5196 23.9694 17.237 23.9997C16.9433 24.0333 16.6417 24.0501 16.3424 24.0501C15.2762 24.0501 14.2403 23.8438 13.2616 23.4357C13.1528 23.392 13.0463 23.3449 12.9465 23.2967L12.8008 23.2261L12.7997 23.2238Z" fill="#FDFDFD"/>
</g>
</g>
</g>
<defs>
<clipPath id="clip0_87_1011">
<rect width="32" height="32" fill="white"/>
</clipPath>
</defs>
</svg>
