<svg width="12" height="12" viewBox="0 0 12 12" fill="none" xmlns="http://www.w3.org/2000/svg">
<g id="Vectors">
<g clip-path="url(#clip0_122_3113)">
<g id="Group">
<g id="Group_2">
<path id="Vector" fill-rule="evenodd" clip-rule="evenodd" d="M0.399902 0.256836H21.6801V1.11838H0.399902V0.256836ZM0.399902 1.97993H21.6801V2.84148H0.399902V1.97993ZM0.399902 3.70302H21.6801V4.56457H0.399902V3.70302ZM0.399902 5.42612H21.6801V6.28766H0.399902V5.42612ZM0.399902 7.14921H21.6801V8.01076H0.399902V7.14921ZM0.399902 8.8723H21.6801V9.73385H0.399902V8.8723ZM0.399902 10.5954H21.6801V11.4569H0.399902V10.5954Z" fill="#BD3D44"/>
<path id="Vector_2" fill-rule="evenodd" clip-rule="evenodd" d="M0.399902 1.11816H21.6801V1.97971H0.399902V1.11816ZM0.399902 2.84126H21.6801V3.7028H0.399902V2.84126ZM0.399902 4.56435H21.6801V5.4259H0.399902V4.56435ZM0.399902 6.28745H21.6801V7.14899H0.399902V6.28745ZM0.399902 8.01054H21.6801V8.87209H0.399902V8.01054ZM0.399902 9.73363H21.6801V10.5952H0.399902V9.73363Z" fill="white"/>
</g>
<path id="Vector_3" fill-rule="evenodd" clip-rule="evenodd" d="M0.399902 0.256836H8.91199V6.28766H0.399902V0.256836Z" fill="#192F5D"/>
<path id="Vector_4" fill-rule="evenodd" clip-rule="evenodd" d="M1.10638 0.515137L1.19253 0.756352H1.43376L1.2356 0.902827L1.31314 1.13545L1.10638 0.988971L0.916835 1.13545L0.994382 0.902827L0.787598 0.756352H1.04609L1.10638 0.515137ZM2.52793 0.515137L2.60548 0.756352H2.85531L2.64855 0.902827L2.73469 1.13545L2.52793 0.988971L2.32117 1.13545L2.40731 0.902827L2.20055 0.756352H2.45038L2.52793 0.515137ZM3.94948 0.515137L4.02702 0.756352H4.27686L4.07009 0.902827L4.15626 1.13545L3.94948 0.988971L3.74271 1.13545L3.82886 0.902827L3.62209 0.756352H3.87195L3.94948 0.515137ZM5.36243 0.515137L5.44857 0.756352H5.68981L5.49164 0.902827L5.56919 1.13545L5.36243 0.988971L5.16426 1.13545L5.24181 0.902827L5.03502 0.756352H5.2935L5.36243 0.515137ZM6.78397 0.515137L6.8615 0.756352H7.11135L6.90459 0.902827L6.99074 1.13545L6.77535 0.988971L6.57719 1.13545L6.65474 0.902827L6.44797 0.756352H6.69781L6.78397 0.515137ZM8.20552 0.515137L8.28307 0.756352H8.5329L8.32614 0.902827L8.41228 1.13545L8.20552 0.988971L7.99876 1.13545L8.0849 0.902827L7.87814 0.756352H8.12797L8.20552 0.515137ZM1.82145 1.11821L1.899 1.35945H2.14886L1.94207 1.5059L2.02824 1.73852L1.82145 1.59206L1.61469 1.73852L1.70084 1.5059L1.49407 1.35945H1.74393L1.82145 1.11821ZM3.2344 1.11821L3.32055 1.35945H3.56179L3.36362 1.5059L3.44117 1.73852L3.2344 1.59206L3.03624 1.73852L3.11379 1.5059L2.907 1.35945H3.16548L3.2344 1.11821ZM4.65595 1.11821L4.7335 1.35945H4.98333L4.77657 1.5059L4.86271 1.73852L4.65595 1.59206L4.44917 1.73852L4.53533 1.5059L4.32857 1.35945H4.5784L4.65595 1.11821ZM6.0775 1.11821L6.15505 1.35945H6.40488L6.19812 1.5059L6.28428 1.73852L6.0775 1.59206L5.87074 1.73852L5.95688 1.5059L5.75012 1.35945H5.99997L6.0775 1.11821ZM7.49045 1.11821L7.57659 1.35945H7.80921L7.61104 1.5059L7.68859 1.73852L7.48183 1.59206L7.28366 1.73852L7.36121 1.5059L7.15443 1.35945H7.4129L7.49045 1.11821ZM1.11498 1.7213L1.18391 1.96252H1.44238L1.2356 2.10899L1.31314 2.34161L1.10638 2.19514L0.916835 2.34161L0.994382 2.10899L0.787598 1.96252H1.04609L1.11498 1.7213ZM2.52793 1.7213L2.60548 1.96252H2.85531L2.65717 2.10899L2.73469 2.34161L2.52793 2.19514L2.32976 2.34161L2.40731 2.10899L2.20055 1.96252H2.45038L2.52793 1.7213ZM3.94948 1.7213L4.02702 1.96252H4.27686L4.07009 2.10899L4.15626 2.34161L3.94948 2.19514L3.74271 2.34161L3.82886 2.10899L3.62209 1.96252H3.87195L3.94948 1.7213ZM5.36243 1.7213L5.44857 1.96252H5.68981L5.49164 2.10899L5.56919 2.34161L5.36243 2.19514L5.16426 2.34161L5.24181 2.10899L5.03502 1.96252H5.2935L5.36243 1.7213ZM6.78397 1.7213L6.8615 1.96252H7.11135L6.91321 2.10899L6.99074 2.34161L6.78397 2.19514L6.58581 2.34161L6.66335 2.10899L6.45659 1.96252H6.70643L6.78397 1.7213ZM8.20552 1.7213L8.28307 1.96252H8.5329L8.32614 2.10899L8.41228 2.34161L8.20552 2.19514L7.99876 2.34161L8.0849 2.10899L7.87814 1.96252H8.12797L8.20552 1.7213ZM1.82145 2.32435L1.899 2.56559H2.14886L1.94207 2.71204L2.02824 2.94466L1.82145 2.79821L1.61469 2.94466L1.70084 2.71204L1.49407 2.56559H1.74393L1.82145 2.32435ZM3.2344 2.32435L3.32055 2.56559H3.56179L3.36362 2.71204L3.44117 2.94466L3.2344 2.79821L3.03624 2.94466L3.11379 2.71204L2.907 2.56559H3.16548L3.2344 2.32435ZM4.65595 2.32435L4.7335 2.56559H4.98333L4.78519 2.71204L4.86271 2.94466L4.65595 2.79821L4.45779 2.94466L4.53533 2.71204L4.32857 2.56559H4.5784L4.65595 2.32435ZM6.0775 2.32435L6.15505 2.56559H6.40488L6.19812 2.71204L6.28428 2.94468L6.0775 2.79823L5.87074 2.94468L5.95688 2.71206L5.75012 2.56561H5.99997L6.0775 2.32435ZM7.49045 2.32435L7.57659 2.56559H7.80921L7.61104 2.71204L7.68859 2.94466L7.48183 2.79821L7.28366 2.94466L7.36121 2.71204L7.15443 2.56559H7.4129L7.49045 2.32435ZM1.11498 2.92745L1.18391 3.16866H1.44238L1.2356 3.31514L1.31314 3.54776L1.10638 3.40128L0.916835 3.54776L0.994382 3.31514L0.787598 3.16866H1.04609L1.11498 2.92745ZM2.52793 2.92745L2.60548 3.16866H2.85531L2.65717 3.31514L2.73469 3.54776L2.52793 3.40128L2.32976 3.54776L2.40731 3.31514L2.20055 3.16866H2.45038L2.52793 2.92745ZM3.94948 2.92745L4.02702 3.16866H4.27686L4.07009 3.31514L4.15626 3.54776L3.94948 3.40128L3.74271 3.54776L3.82886 3.31514L3.62209 3.16866H3.87195L3.94948 2.92745ZM5.36243 2.92745L5.44857 3.16866H5.68981L5.49164 3.31514L5.56919 3.54776L5.36243 3.40128L5.16426 3.54776L5.24181 3.31514L5.03502 3.16866H5.2935L5.36243 2.92745ZM6.78397 2.92745L6.8615 3.16866H7.11135L6.91321 3.31514L6.99074 3.54776L6.78397 3.40128L6.58581 3.54776L6.66335 3.31514L6.45659 3.16866H6.70643L6.78397 2.92745ZM8.20552 2.92745L8.28307 3.16866H8.5329L8.32614 3.31514L8.41228 3.54776L8.20552 3.40128L7.99876 3.54776L8.0849 3.31514L7.87814 3.16866H8.12797L8.20552 2.92745ZM1.82145 3.53052L1.899 3.77176H2.14886L1.94207 3.91821L2.02824 4.15083L1.82145 4.00437L1.61469 4.15083L1.70084 3.91821L1.49407 3.77176H1.74393L1.82145 3.53052ZM3.2344 3.53052L3.32055 3.77176H3.56179L3.36362 3.91821L3.44117 4.15083L3.2344 4.00437L3.03624 4.15083L3.11379 3.91821L2.907 3.77176H3.16548L3.2344 3.53052ZM4.65595 3.53052L4.7335 3.77176H4.98333L4.78519 3.91821L4.86271 4.15083L4.65595 4.00437L4.45779 4.15083L4.53533 3.91821L4.32857 3.77176H4.5784L4.65595 3.53052ZM6.0775 3.53052L6.15505 3.77176H6.40488L6.19812 3.91821L6.28428 4.15085L6.0775 4.0044L5.87074 4.15085L5.95688 3.91823L5.75012 3.77178H5.99997L6.0775 3.53052ZM7.49045 3.53052L7.57659 3.77176H7.80921L7.61104 3.91821L7.68859 4.15083L7.48183 4.00437L7.28366 4.15083L7.36121 3.91821L7.15443 3.77176H7.4129L7.49045 3.53052ZM1.11498 4.13361L1.18391 4.37483H1.44238L1.2356 4.5213L1.31314 4.75392L1.10638 4.60745L0.916835 4.75392L0.994382 4.5213L0.787598 4.37483H1.04609L1.11498 4.13361ZM2.52793 4.13361L2.60548 4.37483H2.85531L2.65717 4.5213L2.73469 4.75392L2.52793 4.60745L2.32976 4.75392L2.40731 4.5213L2.20055 4.37483H2.45038L2.52793 4.13361ZM3.94948 4.13361L4.02702 4.37483H4.27686L4.07009 4.5213L4.15626 4.75392L3.94948 4.60745L3.74271 4.75392L3.82886 4.5213L3.62209 4.37483H3.87195L3.94948 4.13361ZM5.36243 4.13361L5.44857 4.37483H5.68981L5.49164 4.5213L5.56919 4.75392L5.36243 4.60745L5.16426 4.75392L5.24181 4.5213L5.03502 4.37483H5.2935L5.36243 4.13361ZM6.78397 4.13361L6.8615 4.37483H7.11135L6.91321 4.5213L6.99074 4.75392L6.78397 4.60745L6.58581 4.75392L6.66335 4.5213L6.45659 4.37483H6.70643L6.78397 4.13361ZM8.20552 4.13361L8.28307 4.37483H8.5329L8.32614 4.5213L8.41228 4.75392L8.20552 4.60745L7.99876 4.75392L8.0849 4.5213L7.87814 4.37483H8.12797L8.20552 4.13361ZM1.82145 4.73671L1.899 4.97794H2.14886L1.94207 5.1244L2.02824 5.35701L1.82145 5.21056L1.61469 5.35701L1.70084 5.1244L1.49407 4.97794H1.74393L1.82145 4.73671ZM3.2344 4.73671L3.32055 4.97794H3.56179L3.36362 5.1244L3.44117 5.35701L3.2344 5.21056L3.03624 5.35701L3.11379 5.1244L2.907 4.97794H3.16548L3.2344 4.73671ZM4.65595 4.73671L4.7335 4.97794H4.98333L4.78519 5.1244L4.86271 5.35701L4.65595 5.21056L4.45779 5.35701L4.53533 5.1244L4.32857 4.97794H4.5784L4.65595 4.73671ZM6.0775 4.73671L6.15505 4.97794H6.40488L6.19812 5.1244L6.28428 5.35704L6.0775 5.21058L5.87074 5.35704L5.95688 5.12442L5.75012 4.97796H5.99997L6.0775 4.73671ZM7.49045 4.73671L7.57659 4.97794H7.80921L7.61104 5.1244L7.68859 5.35701L7.48183 5.21056L7.28366 5.35701L7.36121 5.1244L7.15443 4.97794H7.4129L7.49045 4.73671ZM1.11498 5.3398L1.18391 5.58102H1.44238L1.2356 5.72749L1.31314 5.96011L1.10638 5.81363L0.916835 5.96011L0.994382 5.72749L0.787598 5.58102H1.04609L1.11498 5.3398ZM2.52793 5.3398L2.60548 5.58102H2.85531L2.65717 5.72749L2.73469 5.96011L2.52793 5.81363L2.32976 5.96011L2.40731 5.72749L2.20055 5.58102H2.45038L2.52793 5.3398ZM3.94948 5.3398L4.02702 5.58102H4.27686L4.07009 5.72749L4.15626 5.96011L3.94948 5.81363L3.74271 5.96011L3.82886 5.72749L3.62209 5.58102H3.87195L3.94948 5.3398ZM5.36243 5.3398L5.44857 5.58102H5.68981L5.49164 5.72749L5.56919 5.96011L5.36243 5.81363L5.16426 5.96011L5.24181 5.72749L5.03502 5.58102H5.2935L5.36243 5.3398ZM6.78397 5.3398L6.8615 5.58102H7.11135L6.91321 5.72749L6.99074 5.96011L6.78397 5.81363L6.58581 5.96011L6.66335 5.72749L6.45659 5.58102H6.70643L6.78397 5.3398ZM8.20552 5.3398L8.28307 5.58102H8.5329L8.32614 5.72749L8.41228 5.96011L8.20552 5.81363L7.99876 5.96011L8.0849 5.72749L7.87814 5.58102H8.12797L8.20552 5.3398Z" fill="white"/>
</g>
</g>
</g>
<defs>
<clipPath id="clip0_122_3113">
<rect x="0.399902" y="0.256836" width="11.2" height="11.2" rx="5.6" fill="white"/>
</clipPath>
</defs>
</svg>
