<svg width="12" height="12" viewBox="0 0 12 12" fill="none" xmlns="http://www.w3.org/2000/svg">
<g id="Vectors">
<g clip-path="url(#clip0_122_3106)">
<path id="Ellipse 10" d="M11.5999 5.85684C11.5999 5.12143 11.4551 4.39323 11.1736 3.71381C10.8922 3.03439 10.4797 2.41705 9.9597 1.89704C9.43969 1.37703 8.82235 0.964537 8.14293 0.683111C7.46351 0.401684 6.7353 0.256836 5.9999 0.256836C5.2645 0.256836 4.5363 0.401684 3.85688 0.683111C3.17745 0.964537 2.56011 1.37703 2.0401 1.89704C1.5201 2.41705 1.1076 3.03439 0.826177 3.71381C0.544751 4.39323 0.399902 5.12143 0.399902 5.85684L5.9999 5.85684H11.5999Z" fill="#005BBB"/>
<path id="Ellipse 11" d="M0.400097 5.85703C0.400097 6.59243 0.544945 7.32063 0.826371 8.00006C1.1078 8.67948 1.52029 9.29682 2.0403 9.81683C2.56031 10.3368 3.17765 10.7493 3.85707 11.0308C4.53649 11.3122 5.2647 11.457 6.0001 11.457C6.7355 11.457 7.4637 11.3122 8.14312 11.0308C8.82255 10.7493 9.43989 10.3368 9.9599 9.81683C10.4799 9.29682 10.8924 8.67948 11.1738 8.00006C11.4552 7.32063 11.6001 6.59243 11.6001 5.85703L6.0001 5.85703H0.400097Z" fill="#FFD500"/>
</g>
</g>
<defs>
<clipPath id="clip0_122_3106">
<rect x="0.399902" y="0.256836" width="11.2" height="11.2" rx="5.6" fill="white"/>
</clipPath>
</defs>
</svg>
