<svg width="24" height="24" viewBox="0 0 24 24" fill="none" xmlns="http://www.w3.org/2000/svg">
<g id="burger.menu">
<g id="Vector">
<path d="M2.40039 5.87999C2.40039 5.28352 2.88392 4.79999 3.48039 4.79999H20.5204C21.1169 4.79999 21.6004 5.28352 21.6004 5.87999C21.6004 6.47646 21.1169 6.95999 20.5204 6.95999H3.48039C2.88392 6.95999 2.40039 6.47646 2.40039 5.87999Z" fill="white"/>
<path d="M2.40039 12.36C2.40039 11.7635 2.88392 11.28 3.48039 11.28H20.5204C21.1169 11.28 21.6004 11.7635 21.6004 12.36C21.6004 12.9565 21.1169 13.44 20.5204 13.44H3.48039C2.88392 13.44 2.40039 12.9565 2.40039 12.36Z" fill="white"/>
<path d="M2.40039 18.84C2.40039 18.2435 2.88392 17.76 3.48039 17.76H20.5204C21.1169 17.76 21.6004 18.2435 21.6004 18.84C21.6004 19.4365 21.1169 19.92 20.5204 19.92H3.48039C2.88392 19.92 2.40039 19.4365 2.40039 18.84Z" fill="white"/>
</g>
</g>
</svg>
