<svg width="34" height="35" viewBox="0 0 34 35" fill="none" xmlns="http://www.w3.org/2000/svg">
<g id="&#208;&#152;&#208;&#186;&#208;&#190;&#208;&#189;&#208;&#186;&#208;&#176; / +" clip-path="url(#clip0_155_3664)">
<path id="Vector" fill-rule="evenodd" clip-rule="evenodd" d="M22.5543 25.5578C23.3041 26.3076 24.5252 26.3022 25.2816 25.5458C26.0381 24.7893 26.0434 23.5683 25.2936 22.8185L19.8629 17.3877L25.3416 11.9091C26.098 11.1526 26.1034 9.93155 25.3536 9.18173C24.6037 8.4319 23.3827 8.43727 22.6262 9.19372L17.1475 14.6724L11.7168 9.24168C10.967 8.49186 9.74594 8.49723 8.98949 9.25367C8.23304 10.0101 8.22768 11.2312 8.9775 11.981L14.4082 17.4117L8.92953 22.8904C8.17309 23.6468 8.16772 24.8679 8.91754 25.6177C9.66737 26.3676 10.8884 26.3622 11.6449 25.6057L17.1236 20.1271L22.5543 25.5578Z" fill="white"/>
</g>
<defs>
<clipPath id="clip0_155_3664">
<rect width="24" height="24.0008" fill="white" transform="translate(0 17.4707) rotate(-45)"/>
</clipPath>
</defs>
</svg>
