<svg width="44" height="44" viewBox="0 0 44 44" fill="none" xmlns="http://www.w3.org/2000/svg">
<g clip-path="url(#clip0_1_2314)">
<rect width="44" height="44" rx="22" fill="white"/>
<g clip-path="url(#clip1_1_2314)">
<path fill-rule="evenodd" clip-rule="evenodd" d="M29.2387 32.4826C30.2108 33.4547 31.7937 33.4477 32.7744 32.4671C33.755 31.4865 33.762 29.9035 32.7899 28.9314L25.7497 21.8912L32.8521 14.7888C33.8327 13.8081 33.8397 12.2252 32.8676 11.2531C31.8956 10.281 30.3126 10.288 29.332 11.2686L22.2295 18.3711L15.1893 11.3308C14.2172 10.3588 12.6343 10.3657 11.6536 11.3464C10.673 12.327 10.666 13.91 11.6381 14.882L18.6783 21.9223L11.5759 29.0247C10.5953 30.0053 10.5883 31.5883 11.5604 32.5604C12.5324 33.5324 14.1154 33.5255 15.096 32.5448L22.1985 25.4424L29.2387 32.4826Z" fill="#040D21"/>
</g>
</g>
<defs>
<clipPath id="clip0_1_2314">
<rect width="44" height="44" rx="22" fill="white"/>
</clipPath>
<clipPath id="clip1_1_2314">
<rect width="31.113" height="31.1141" fill="white" transform="translate(0 21.999) rotate(-45)"/>
</clipPath>
</defs>
</svg>
